<mxfile host="app.diagrams.net" modified="2024-05-30T21:27:21.476Z" agent="Mozilla/5.0 (Windows NT 10.0; Win64; x64) AppleWebKit/537.36 (KHTML, like Gecko) Chrome/125.0.0.0 Safari/537.36 Edg/125.0.0.0" etag="P7mzdrVoWODWQS3hKXeZ" version="24.4.10" type="github">
  <diagram name="Page-1" id="2xOBJ3lYpVCcmvuiTEMW">
    <mxGraphModel dx="2448" dy="3115" grid="0" gridSize="10" guides="1" tooltips="1" connect="1" arrows="1" fold="1" page="0" pageScale="1" pageWidth="850" pageHeight="1100" math="0" shadow="0">
      <root>
        <mxCell id="0" />
        <mxCell id="1" parent="0" />
        <mxCell id="wNC5jkK5HLdgZE02Q9-H-7" value="" style="verticalLabelPosition=bottom;verticalAlign=top;html=1;shape=mxgraph.basic.corner_round_rect;dx=40.7;whiteSpace=wrap;fillColor=#FFEDED;" vertex="1" parent="1">
          <mxGeometry x="1089.5" y="-919.5" width="1108" height="319" as="geometry" />
        </mxCell>
        <mxCell id="wNC5jkK5HLdgZE02Q9-H-3" value="" style="whiteSpace=wrap;html=1;shape=mxgraph.basic.cloud_rect;fillColor=#FFEDED;" vertex="1" parent="1">
          <mxGeometry x="143" y="-929" width="627" height="281" as="geometry" />
        </mxCell>
        <mxCell id="gSzeJerURYjWZHmB3eWi-1" value="&lt;font style=&quot;font-size: 18px;&quot;&gt;TransformChebInPlace1DErrorFree&lt;/font&gt;" style="html=1;overflow=block;blockSpacing=1;whiteSpace=wrap;fontSize=16.7;spacing=9;rounded=1;absoluteArcSize=1;arcSize=9;strokeWidth=NaN;lucidId=dmvG5cYQ5Y~9;" parent="1" vertex="1">
          <mxGeometry x="1432.5" y="-876.5" width="316" height="48" as="geometry" />
        </mxCell>
        <mxCell id="gSzeJerURYjWZHmB3eWi-2" value="TransformChebInPlace1D" style="html=1;overflow=block;blockSpacing=1;whiteSpace=wrap;fontSize=16.7;fontStyle=1;spacing=9;rounded=1;absoluteArcSize=1;arcSize=9;strokeWidth=NaN;lucidId=knvGi8C9Tio3;" parent="1" vertex="1">
          <mxGeometry x="1118" y="-783" width="228" height="46" as="geometry" />
        </mxCell>
        <mxCell id="gSzeJerURYjWZHmB3eWi-3" value="TransformChebInPlace1DErrorFreeSplit" style="html=1;overflow=block;blockSpacing=1;whiteSpace=wrap;fontSize=16.7;spacing=9;rounded=1;absoluteArcSize=1;arcSize=9;strokeWidth=NaN;lucidId=InvGvLh.hRAc;" parent="1" vertex="1">
          <mxGeometry x="1426.5" y="-770" width="334" height="46" as="geometry" />
        </mxCell>
        <mxCell id="TFieeq6qcoloKsAf0FWk-28" style="edgeStyle=orthogonalEdgeStyle;rounded=0;orthogonalLoop=1;jettySize=auto;html=1;exitX=0.25;exitY=0;exitDx=0;exitDy=0;entryX=0.5;entryY=1;entryDx=0;entryDy=0;noEdgeStyle=1;orthogonal=1;" parent="1" source="gSzeJerURYjWZHmB3eWi-39" target="gSzeJerURYjWZHmB3eWi-36" edge="1">
          <mxGeometry relative="1" as="geometry">
            <mxPoint x="1819.5" y="-878.9999999999995" as="targetPoint" />
          </mxGeometry>
        </mxCell>
        <mxCell id="gSzeJerURYjWZHmB3eWi-70" style="edgeStyle=orthogonalEdgeStyle;rounded=0;orthogonalLoop=1;jettySize=auto;html=1;exitX=0.5;exitY=0;exitDx=0;exitDy=0;entryX=0.75;entryY=1;entryDx=0;entryDy=0;noEdgeStyle=1;orthogonal=1;" parent="1" source="gSzeJerURYjWZHmB3eWi-6" target="gSzeJerURYjWZHmB3eWi-7" edge="1">
          <mxGeometry relative="1" as="geometry" />
        </mxCell>
        <mxCell id="gSzeJerURYjWZHmB3eWi-6" value="&lt;b&gt;canThrowOut&lt;/b&gt;" style="html=1;overflow=block;blockSpacing=1;whiteSpace=wrap;fontSize=16.7;spacing=9;strokeColor=#unset;fillOpacity=100;rounded=1;absoluteArcSize=1;arcSize=9;fillColor=#c3f7c8;strokeWidth=NaN;lucidId=buvGreV.Rbld;" parent="1" vertex="1">
          <mxGeometry x="937" y="-705" width="142" height="46" as="geometry" />
        </mxCell>
        <mxCell id="TFieeq6qcoloKsAf0FWk-25" style="edgeStyle=orthogonalEdgeStyle;rounded=0;orthogonalLoop=1;jettySize=auto;html=1;exitX=1;exitY=0.5;exitDx=0;exitDy=0;entryX=0;entryY=0.5;entryDx=0;entryDy=0;noEdgeStyle=1;orthogonal=1;" parent="1" source="gSzeJerURYjWZHmB3eWi-8" target="gSzeJerURYjWZHmB3eWi-35" edge="1">
          <mxGeometry relative="1" as="geometry" />
        </mxCell>
        <mxCell id="gSzeJerURYjWZHmB3eWi-8" value="&lt;b&gt;getLastTransform&lt;/b&gt;" style="html=1;overflow=block;blockSpacing=1;whiteSpace=wrap;fontSize=16.7;spacing=9;strokeColor=#unset;fillOpacity=100;rounded=1;absoluteArcSize=1;arcSize=9;fillColor=#c3f7c8;strokeWidth=NaN;lucidId=nuvG4u6pJSBF;" parent="1" vertex="1">
          <mxGeometry x="430" y="-1160" width="176" height="46" as="geometry" />
        </mxCell>
        <mxCell id="gSzeJerURYjWZHmB3eWi-73" style="edgeStyle=orthogonalEdgeStyle;rounded=0;orthogonalLoop=1;jettySize=auto;html=1;exitX=1;exitY=0.5;exitDx=0;exitDy=0;entryX=0;entryY=0;entryDx=0;entryDy=0;noEdgeStyle=1;orthogonal=1;" parent="1" source="gSzeJerURYjWZHmB3eWi-9" target="gSzeJerURYjWZHmB3eWi-42" edge="1">
          <mxGeometry relative="1" as="geometry" />
        </mxCell>
        <mxCell id="gSzeJerURYjWZHmB3eWi-9" value="&lt;b&gt;size&lt;/b&gt;" style="html=1;overflow=block;blockSpacing=1;whiteSpace=wrap;fontSize=16.7;spacing=9;strokeColor=#unset;fillOpacity=100;rounded=1;absoluteArcSize=1;arcSize=9;fillColor=#c3f7c8;strokeWidth=NaN;lucidId=puvGT1JNjFwU;" parent="1" vertex="1">
          <mxGeometry x="674.5" y="-1444" width="64" height="46" as="geometry" />
        </mxCell>
        <mxCell id="gSzeJerURYjWZHmB3eWi-74" style="edgeStyle=orthogonalEdgeStyle;rounded=0;orthogonalLoop=1;jettySize=auto;html=1;exitX=0.5;exitY=0;exitDx=0;exitDy=0;entryX=0.75;entryY=1;entryDx=0;entryDy=0;noEdgeStyle=1;orthogonal=1;" parent="1" source="gSzeJerURYjWZHmB3eWi-10" target="gSzeJerURYjWZHmB3eWi-39" edge="1">
          <mxGeometry relative="1" as="geometry" />
        </mxCell>
        <mxCell id="gSzeJerURYjWZHmB3eWi-10" value="&lt;b&gt;dimSize&lt;/b&gt;" style="html=1;overflow=block;blockSpacing=1;whiteSpace=wrap;fontSize=16.7;spacing=9;strokeColor=#unset;fillOpacity=100;rounded=1;absoluteArcSize=1;arcSize=9;fillColor=#c3f7c8;strokeWidth=NaN;lucidId=quvGLQl-J0F1;" parent="1" vertex="1">
          <mxGeometry x="1455" y="-987" width="96" height="46" as="geometry" />
        </mxCell>
        <mxCell id="gSzeJerURYjWZHmB3eWi-11" value="&lt;b&gt;finalDimSize&lt;/b&gt;" style="html=1;overflow=block;blockSpacing=1;whiteSpace=wrap;fontSize=16.7;spacing=9;strokeColor=#unset;fillOpacity=100;rounded=1;absoluteArcSize=1;arcSize=9;fillColor=#c3f7c8;strokeWidth=NaN;lucidId=quvGL2XS0uKx;" parent="1" vertex="1">
          <mxGeometry x="1748.5" y="-1626" width="164" height="57" as="geometry" />
        </mxCell>
        <mxCell id="gSzeJerURYjWZHmB3eWi-76" style="edgeStyle=orthogonalEdgeStyle;rounded=0;orthogonalLoop=1;jettySize=auto;html=1;exitX=0.5;exitY=0;exitDx=0;exitDy=0;entryX=0.25;entryY=1;entryDx=0;entryDy=0;noEdgeStyle=1;orthogonal=1;" parent="1" source="gSzeJerURYjWZHmB3eWi-12" target="gSzeJerURYjWZHmB3eWi-7" edge="1">
          <mxGeometry relative="1" as="geometry" />
        </mxCell>
        <mxCell id="gSzeJerURYjWZHmB3eWi-77" style="edgeStyle=orthogonalEdgeStyle;rounded=0;orthogonalLoop=1;jettySize=auto;html=1;exitX=1;exitY=0;exitDx=0;exitDy=0;entryX=0;entryY=1;entryDx=0;entryDy=0;noEdgeStyle=1;orthogonal=1;" parent="1" source="gSzeJerURYjWZHmB3eWi-32" target="gSzeJerURYjWZHmB3eWi-36" edge="1">
          <mxGeometry relative="1" as="geometry" />
        </mxCell>
        <mxCell id="gSzeJerURYjWZHmB3eWi-13" value="&lt;b&gt;__init__&lt;/b&gt;" style="html=1;overflow=block;blockSpacing=1;whiteSpace=wrap;fontSize=16.7;spacing=9;strokeColor=#unset;fillOpacity=100;rounded=1;absoluteArcSize=1;arcSize=9;fillColor=#c3f7c8;strokeWidth=NaN;lucidId=suvG-t2MyoY1;" parent="1" vertex="1">
          <mxGeometry x="166" y="-807.5" width="95" height="46" as="geometry" />
        </mxCell>
        <mxCell id="gSzeJerURYjWZHmB3eWi-67" style="edgeStyle=orthogonalEdgeStyle;rounded=0;orthogonalLoop=1;jettySize=auto;html=1;entryX=1;entryY=1;entryDx=0;entryDy=0;noEdgeStyle=1;orthogonal=1;" parent="1" source="gSzeJerURYjWZHmB3eWi-14" target="gSzeJerURYjWZHmB3eWi-42" edge="1">
          <mxGeometry relative="1" as="geometry" />
        </mxCell>
        <mxCell id="gSzeJerURYjWZHmB3eWi-14" value="getFinalInterval" style="html=1;overflow=block;blockSpacing=1;whiteSpace=wrap;fontSize=16.7;spacing=9;strokeColor=#unset;fillOpacity=100;rounded=1;absoluteArcSize=1;arcSize=9;fillColor=#c3f7c8;strokeWidth=NaN;lucidId=suvGv4NV8.5e;" parent="1" vertex="1">
          <mxGeometry x="1684.0011784122082" y="-1159.5" width="148" height="46" as="geometry" />
        </mxCell>
        <mxCell id="gSzeJerURYjWZHmB3eWi-71" style="edgeStyle=orthogonalEdgeStyle;rounded=0;orthogonalLoop=1;jettySize=auto;html=1;exitX=0.5;exitY=0;exitDx=0;exitDy=0;entryX=0.75;entryY=1;entryDx=0;entryDy=0;noEdgeStyle=1;orthogonal=1;" parent="1" source="gSzeJerURYjWZHmB3eWi-15" target="gSzeJerURYjWZHmB3eWi-42" edge="1">
          <mxGeometry relative="1" as="geometry" />
        </mxCell>
        <mxCell id="gSzeJerURYjWZHmB3eWi-15" value="getFinalPoint" style="html=1;overflow=block;blockSpacing=1;whiteSpace=wrap;fontSize=16.7;spacing=9;strokeColor=#unset;fillOpacity=100;rounded=1;absoluteArcSize=1;arcSize=9;fillColor=#c3f7c8;strokeWidth=NaN;lucidId=tuvGn-9A5tx1;" parent="1" vertex="1">
          <mxGeometry x="1578" y="-1095" width="131" height="46" as="geometry" />
        </mxCell>
        <mxCell id="gSzeJerURYjWZHmB3eWi-16" value="&lt;b&gt;__contains__&lt;/b&gt;" style="html=1;overflow=block;blockSpacing=1;whiteSpace=wrap;fontSize=16.7;spacing=9;strokeColor=#unset;fillOpacity=100;rounded=1;absoluteArcSize=1;arcSize=9;fillColor=#c3f7c8;strokeWidth=NaN;lucidId=6wvGI3m5uPQ6;" parent="1" vertex="1">
          <mxGeometry x="1972.5" y="-1626" width="179" height="57" as="geometry" />
        </mxCell>
        <mxCell id="gSzeJerURYjWZHmB3eWi-85" style="edgeStyle=orthogonalEdgeStyle;rounded=0;orthogonalLoop=1;jettySize=auto;html=1;exitX=1;exitY=0.5;exitDx=0;exitDy=0;entryX=0;entryY=1;entryDx=0;entryDy=0;noEdgeStyle=1;orthogonal=1;" parent="1" source="gSzeJerURYjWZHmB3eWi-17" target="gSzeJerURYjWZHmB3eWi-42" edge="1">
          <mxGeometry relative="1" as="geometry" />
        </mxCell>
        <mxCell id="gSzeJerURYjWZHmB3eWi-17" value="overlapsWith" style="html=1;overflow=block;blockSpacing=1;whiteSpace=wrap;fontSize=16.7;spacing=9;strokeColor=#unset;fillOpacity=100;rounded=1;absoluteArcSize=1;arcSize=9;fillColor=#c3f7c8;strokeWidth=NaN;lucidId=6wvGPlVbQx5Q;" parent="1" vertex="1">
          <mxGeometry x="785" y="-1362" width="130" height="46" as="geometry" />
        </mxCell>
        <mxCell id="gSzeJerURYjWZHmB3eWi-86" style="edgeStyle=orthogonalEdgeStyle;rounded=0;orthogonalLoop=1;jettySize=auto;html=1;exitX=1;exitY=0.75;exitDx=0;exitDy=0;entryX=0;entryY=0.5;entryDx=0;entryDy=0;noEdgeStyle=1;orthogonal=1;" parent="1" source="gSzeJerURYjWZHmB3eWi-18" target="gSzeJerURYjWZHmB3eWi-35" edge="1">
          <mxGeometry relative="1" as="geometry" />
        </mxCell>
        <mxCell id="gSzeJerURYjWZHmB3eWi-18" value="&lt;b&gt;isPoint&lt;/b&gt;" style="html=1;overflow=block;blockSpacing=1;whiteSpace=wrap;fontSize=16.7;spacing=9;strokeColor=#unset;fillOpacity=100;rounded=1;absoluteArcSize=1;arcSize=9;fillColor=#c3f7c8;strokeWidth=NaN;lucidId=7wvGUOvPoK2R;" parent="1" vertex="1">
          <mxGeometry x="448" y="-1240" width="89" height="46" as="geometry" />
        </mxCell>
        <mxCell id="gSzeJerURYjWZHmB3eWi-88" style="edgeStyle=orthogonalEdgeStyle;rounded=0;orthogonalLoop=1;jettySize=auto;html=1;exitX=0.5;exitY=0;exitDx=0;exitDy=0;noEdgeStyle=1;orthogonal=1;entryX=0;entryY=0;entryDx=0;entryDy=0;" parent="1" source="gSzeJerURYjWZHmB3eWi-19" target="gSzeJerURYjWZHmB3eWi-42" edge="1">
          <mxGeometry relative="1" as="geometry">
            <mxPoint x="1246" y="-1338" as="targetPoint" />
          </mxGeometry>
        </mxCell>
        <mxCell id="gSzeJerURYjWZHmB3eWi-19" value="&lt;b&gt;startFinalStep&lt;/b&gt;" style="html=1;overflow=block;blockSpacing=1;whiteSpace=wrap;fontSize=16.7;spacing=9;strokeColor=#unset;fillOpacity=100;rounded=1;absoluteArcSize=1;arcSize=9;fillColor=#c3f7c8;strokeWidth=NaN;lucidId=BxvG~84AOXuV;" parent="1" vertex="1">
          <mxGeometry x="643" y="-1592" width="145" height="46" as="geometry" />
        </mxCell>
        <mxCell id="gSzeJerURYjWZHmB3eWi-84" style="edgeStyle=orthogonalEdgeStyle;rounded=0;orthogonalLoop=1;jettySize=auto;html=1;exitX=1;exitY=0.25;exitDx=0;exitDy=0;entryX=0;entryY=0.5;entryDx=0;entryDy=0;noEdgeStyle=1;orthogonal=1;" parent="1" source="gSzeJerURYjWZHmB3eWi-20" target="gSzeJerURYjWZHmB3eWi-17" edge="1">
          <mxGeometry relative="1" as="geometry" />
        </mxCell>
        <mxCell id="gSzeJerURYjWZHmB3eWi-89" style="edgeStyle=orthogonalEdgeStyle;rounded=0;orthogonalLoop=1;jettySize=auto;html=1;exitX=1;exitY=0.5;exitDx=0;exitDy=0;noEdgeStyle=1;orthogonal=1;entryX=0;entryY=0.5;entryDx=0;entryDy=0;" parent="1" source="gSzeJerURYjWZHmB3eWi-20" target="gSzeJerURYjWZHmB3eWi-43" edge="1">
          <mxGeometry relative="1" as="geometry" />
        </mxCell>
        <mxCell id="gSzeJerURYjWZHmB3eWi-20" value="&lt;b&gt;getIntervalForCombining&lt;/b&gt;" style="html=1;overflow=block;blockSpacing=1;whiteSpace=wrap;fontSize=16.7;spacing=9;strokeColor=#unset;fillOpacity=100;rounded=1;absoluteArcSize=1;arcSize=9;fillColor=#c3f7c8;strokeWidth=NaN;lucidId=JxvG9e4FdInQ;" parent="1" vertex="1">
          <mxGeometry x="437" y="-1332" width="234" height="46" as="geometry" />
        </mxCell>
        <mxCell id="gSzeJerURYjWZHmB3eWi-93" style="edgeStyle=orthogonalEdgeStyle;rounded=0;orthogonalLoop=1;jettySize=auto;html=1;exitX=0.5;exitY=0;exitDx=0;exitDy=0;entryX=0.5;entryY=1;entryDx=0;entryDy=0;noEdgeStyle=1;orthogonal=1;" parent="1" source="gSzeJerURYjWZHmB3eWi-21" target="gSzeJerURYjWZHmB3eWi-24" edge="1">
          <mxGeometry relative="1" as="geometry" />
        </mxCell>
        <mxCell id="gSzeJerURYjWZHmB3eWi-21" value="&lt;b&gt;findVertices**&lt;/b&gt;" style="html=1;overflow=block;blockSpacing=1;whiteSpace=wrap;fontSize=16.7;spacing=9;rounded=1;absoluteArcSize=1;arcSize=9;strokeWidth=NaN;lucidId=LxvGKE6caGs9;" parent="1" vertex="1">
          <mxGeometry x="607" y="-717" width="142" height="46" as="geometry" />
        </mxCell>
        <mxCell id="gSzeJerURYjWZHmB3eWi-91" style="edgeStyle=orthogonalEdgeStyle;rounded=0;orthogonalLoop=1;jettySize=auto;html=1;exitX=0.5;exitY=0;exitDx=0;exitDy=0;noEdgeStyle=1;orthogonal=1;" parent="1" source="gSzeJerURYjWZHmB3eWi-22" target="gSzeJerURYjWZHmB3eWi-24" edge="1">
          <mxGeometry relative="1" as="geometry" />
        </mxCell>
        <mxCell id="gSzeJerURYjWZHmB3eWi-92" style="edgeStyle=orthogonalEdgeStyle;rounded=0;orthogonalLoop=1;jettySize=auto;html=1;exitX=0.5;exitY=0;exitDx=0;exitDy=0;entryX=0.5;entryY=1;entryDx=0;entryDy=0;noEdgeStyle=1;orthogonal=1;" parent="1" source="gSzeJerURYjWZHmB3eWi-22" target="gSzeJerURYjWZHmB3eWi-33" edge="1">
          <mxGeometry relative="1" as="geometry" />
        </mxCell>
        <mxCell id="gSzeJerURYjWZHmB3eWi-22" value="&lt;b&gt;getLinearTerms&lt;/b&gt;" style="html=1;overflow=block;blockSpacing=1;whiteSpace=wrap;fontSize=16.7;spacing=9;rounded=1;absoluteArcSize=1;arcSize=9;strokeWidth=NaN;lucidId=MxvGIrtS~3qU;" parent="1" vertex="1">
          <mxGeometry x="236" y="-717.5" width="158" height="46" as="geometry" />
        </mxCell>
        <mxCell id="gSzeJerURYjWZHmB3eWi-94" style="edgeStyle=orthogonalEdgeStyle;rounded=0;orthogonalLoop=1;jettySize=auto;html=1;exitX=0.5;exitY=0;exitDx=0;exitDy=0;entryX=0.25;entryY=1;entryDx=0;entryDy=0;noEdgeStyle=1;orthogonal=1;" parent="1" source="gSzeJerURYjWZHmB3eWi-23" target="gSzeJerURYjWZHmB3eWi-24" edge="1">
          <mxGeometry relative="1" as="geometry" />
        </mxCell>
        <mxCell id="gSzeJerURYjWZHmB3eWi-23" value="&lt;b&gt;linearCheck1&lt;/b&gt;" style="html=1;overflow=block;blockSpacing=1;whiteSpace=wrap;fontSize=16.7;spacing=9;rounded=1;absoluteArcSize=1;arcSize=9;strokeWidth=NaN;lucidId=wzvGRfacYVgM;" parent="1" vertex="1">
          <mxGeometry x="433" y="-717.5" width="138" height="46" as="geometry" />
        </mxCell>
        <mxCell id="gSzeJerURYjWZHmB3eWi-96" style="edgeStyle=orthogonalEdgeStyle;rounded=0;orthogonalLoop=1;jettySize=auto;html=1;exitX=0.5;exitY=0;exitDx=0;exitDy=0;entryX=0;entryY=1;entryDx=0;entryDy=0;noEdgeStyle=1;orthogonal=1;" parent="1" source="gSzeJerURYjWZHmB3eWi-24" target="gSzeJerURYjWZHmB3eWi-35" edge="1">
          <mxGeometry relative="1" as="geometry" />
        </mxCell>
        <mxCell id="gSzeJerURYjWZHmB3eWi-24" value="boundingIntervalLinearSystem" style="html=1;overflow=block;blockSpacing=1;whiteSpace=wrap;fontSize=16.7;spacing=9;rounded=1;absoluteArcSize=1;arcSize=9;strokeWidth=NaN;lucidId=xzvGvidBtGLh;" parent="1" vertex="1">
          <mxGeometry x="468" y="-883" width="262" height="46" as="geometry" />
        </mxCell>
        <mxCell id="gSzeJerURYjWZHmB3eWi-25" value="twoSum" style="html=1;overflow=block;blockSpacing=1;whiteSpace=wrap;fontSize=16.7;fontStyle=1;spacing=9;rounded=1;absoluteArcSize=1;arcSize=9;strokeWidth=NaN;lucidId=yzvG6f040fgA;direction=south;" parent="1" vertex="1">
          <mxGeometry x="1546.25" y="-672.5" width="93" height="46" as="geometry" />
        </mxCell>
        <mxCell id="TFieeq6qcoloKsAf0FWk-13" style="edgeStyle=orthogonalEdgeStyle;rounded=0;orthogonalLoop=1;jettySize=auto;html=1;exitX=0;exitY=0.5;exitDx=0;exitDy=0;entryX=1;entryY=1;entryDx=0;entryDy=0;noEdgeStyle=1;orthogonal=1;" parent="1" source="gSzeJerURYjWZHmB3eWi-26" target="gSzeJerURYjWZHmB3eWi-1" edge="1">
          <mxGeometry relative="1" as="geometry" />
        </mxCell>
        <mxCell id="gSzeJerURYjWZHmB3eWi-26" value="twoProdWithSplit" style="html=1;overflow=block;blockSpacing=1;whiteSpace=wrap;fontSize=16.7;spacing=9;rounded=1;absoluteArcSize=1;arcSize=9;strokeWidth=NaN;lucidId=VDvGAaUtZtoz;" parent="1" vertex="1">
          <mxGeometry x="1831.5" y="-818" width="161" height="46" as="geometry" />
        </mxCell>
        <mxCell id="TFieeq6qcoloKsAf0FWk-10" style="edgeStyle=orthogonalEdgeStyle;rounded=0;orthogonalLoop=1;jettySize=auto;html=1;exitX=0.75;exitY=0;exitDx=0;exitDy=0;entryX=0.5;entryY=1;entryDx=0;entryDy=0;noEdgeStyle=1;orthogonal=1;" parent="1" source="gSzeJerURYjWZHmB3eWi-27" target="gSzeJerURYjWZHmB3eWi-14" edge="1">
          <mxGeometry relative="1" as="geometry" />
        </mxCell>
        <mxCell id="TFieeq6qcoloKsAf0FWk-11" style="edgeStyle=orthogonalEdgeStyle;rounded=0;orthogonalLoop=1;jettySize=auto;html=1;exitX=0;exitY=0;exitDx=0;exitDy=0;entryX=1;entryY=1;entryDx=0;entryDy=0;noEdgeStyle=1;orthogonal=1;" parent="1" source="gSzeJerURYjWZHmB3eWi-27" target="gSzeJerURYjWZHmB3eWi-15" edge="1">
          <mxGeometry relative="1" as="geometry" />
        </mxCell>
        <mxCell id="gSzeJerURYjWZHmB3eWi-27" value="&lt;span style=&quot;font-weight: normal;&quot;&gt;twoProd&lt;/span&gt;" style="html=1;overflow=block;blockSpacing=1;whiteSpace=wrap;fontSize=16.7;fontStyle=1;spacing=9;rounded=1;absoluteArcSize=1;arcSize=9;strokeWidth=NaN;lucidId=VDvGA5.Qc8Cz;" parent="1" vertex="1">
          <mxGeometry x="2050" y="-879" width="94" height="46" as="geometry" />
        </mxCell>
        <mxCell id="TFieeq6qcoloKsAf0FWk-7" style="edgeStyle=orthogonalEdgeStyle;rounded=0;orthogonalLoop=1;jettySize=auto;html=1;exitX=0.5;exitY=0;exitDx=0;exitDy=0;entryX=0.5;entryY=1;entryDx=0;entryDy=0;noEdgeStyle=1;orthogonal=1;" parent="1" source="gSzeJerURYjWZHmB3eWi-28" target="gSzeJerURYjWZHmB3eWi-27" edge="1">
          <mxGeometry relative="1" as="geometry" />
        </mxCell>
        <mxCell id="TFieeq6qcoloKsAf0FWk-8" style="edgeStyle=orthogonalEdgeStyle;rounded=0;orthogonalLoop=1;jettySize=auto;html=1;exitX=0;exitY=0.5;exitDx=0;exitDy=0;entryX=1;entryY=1;entryDx=0;entryDy=0;noEdgeStyle=1;orthogonal=1;" parent="1" source="gSzeJerURYjWZHmB3eWi-28" target="gSzeJerURYjWZHmB3eWi-26" edge="1">
          <mxGeometry relative="1" as="geometry" />
        </mxCell>
        <mxCell id="gSzeJerURYjWZHmB3eWi-28" value="&lt;b&gt;split&lt;/b&gt;" style="html=1;overflow=block;blockSpacing=1;whiteSpace=wrap;fontSize=16.7;spacing=9;rounded=1;absoluteArcSize=1;arcSize=9;strokeWidth=NaN;lucidId=WDvGiFP1AxDj;" parent="1" vertex="1">
          <mxGeometry x="2063.5" y="-762" width="67" height="46" as="geometry" />
        </mxCell>
        <mxCell id="gSzeJerURYjWZHmB3eWi-29" value="&lt;b&gt;getTransformPoints&lt;/b&gt;" style="html=1;overflow=block;blockSpacing=1;whiteSpace=wrap;fontSize=16.7;spacing=9;rounded=1;absoluteArcSize=1;arcSize=9;strokeWidth=NaN;lucidId=fEvGb1Bfr2xH;" parent="1" vertex="1">
          <mxGeometry x="1879.75" y="-1519" width="200" height="50" as="geometry" />
        </mxCell>
        <mxCell id="TFieeq6qcoloKsAf0FWk-14" style="edgeStyle=orthogonalEdgeStyle;rounded=0;orthogonalLoop=1;jettySize=auto;html=1;exitX=0.75;exitY=0;exitDx=0;exitDy=0;entryX=0.25;entryY=1;entryDx=0;entryDy=0;noEdgeStyle=1;orthogonal=1;" parent="1" source="gSzeJerURYjWZHmB3eWi-30" target="gSzeJerURYjWZHmB3eWi-31" edge="1">
          <mxGeometry relative="1" as="geometry" />
        </mxCell>
        <mxCell id="gSzeJerURYjWZHmB3eWi-30" value="&lt;b&gt;getTranformationError&lt;/b&gt;" style="html=1;overflow=block;blockSpacing=1;whiteSpace=wrap;fontSize=16.7;spacing=9;rounded=1;absoluteArcSize=1;arcSize=9;strokeWidth=NaN;lucidId=pEvGscRFcPzu;" parent="1" vertex="1">
          <mxGeometry x="776" y="-892" width="213" height="46" as="geometry" />
        </mxCell>
        <mxCell id="TFieeq6qcoloKsAf0FWk-16" style="edgeStyle=orthogonalEdgeStyle;rounded=0;orthogonalLoop=1;jettySize=auto;html=1;exitX=0.5;exitY=0;exitDx=0;exitDy=0;entryX=0.5;entryY=1;entryDx=0;entryDy=0;noEdgeStyle=1;orthogonal=1;" parent="1" source="gSzeJerURYjWZHmB3eWi-31" target="gSzeJerURYjWZHmB3eWi-32" edge="1">
          <mxGeometry relative="1" as="geometry" />
        </mxCell>
        <mxCell id="TFieeq6qcoloKsAf0FWk-18" style="edgeStyle=orthogonalEdgeStyle;rounded=0;orthogonalLoop=1;jettySize=auto;html=1;exitX=0.5;exitY=0;exitDx=0;exitDy=0;entryX=0.5;entryY=1;entryDx=0;entryDy=0;noEdgeStyle=1;orthogonal=1;" parent="1" source="gSzeJerURYjWZHmB3eWi-32" target="gSzeJerURYjWZHmB3eWi-35" edge="1">
          <mxGeometry relative="1" as="geometry" />
        </mxCell>
        <mxCell id="gSzeJerURYjWZHmB3eWi-97" style="edgeStyle=orthogonalEdgeStyle;rounded=0;orthogonalLoop=1;jettySize=auto;html=1;exitX=0.5;exitY=0;exitDx=0;exitDy=0;entryX=0;entryY=0.75;entryDx=0;entryDy=0;noEdgeStyle=1;orthogonal=1;" parent="1" source="gSzeJerURYjWZHmB3eWi-33" target="gSzeJerURYjWZHmB3eWi-35" edge="1">
          <mxGeometry relative="1" as="geometry" />
        </mxCell>
        <mxCell id="gSzeJerURYjWZHmB3eWi-33" value="reduceSolvedDim" style="html=1;overflow=block;blockSpacing=1;whiteSpace=wrap;fontSize=16.7;spacing=9;rounded=1;absoluteArcSize=1;arcSize=9;strokeWidth=NaN;lucidId=SEvGeNP.ry0q;" parent="1" vertex="1">
          <mxGeometry x="246" y="-898" width="166" height="46" as="geometry" />
        </mxCell>
        <mxCell id="TFieeq6qcoloKsAf0FWk-27" style="edgeStyle=orthogonalEdgeStyle;rounded=0;orthogonalLoop=1;jettySize=auto;html=1;exitX=0.5;exitY=0;exitDx=0;exitDy=0;entryX=0.25;entryY=1;entryDx=0;entryDy=0;noEdgeStyle=1;orthogonal=1;" parent="1" source="gSzeJerURYjWZHmB3eWi-34" target="gSzeJerURYjWZHmB3eWi-36" edge="1">
          <mxGeometry relative="1" as="geometry" />
        </mxCell>
        <mxCell id="gSzeJerURYjWZHmB3eWi-34" value="chebTransform1D" style="html=1;overflow=block;blockSpacing=1;whiteSpace=wrap;fontSize=16.7;spacing=9;rounded=1;absoluteArcSize=1;arcSize=9;strokeWidth=NaN;lucidId=tFvGEyg3GKGr;" parent="1" vertex="1">
          <mxGeometry x="1148" y="-1068.5" width="167" height="46" as="geometry" />
        </mxCell>
        <mxCell id="TFieeq6qcoloKsAf0FWk-97" style="edgeStyle=orthogonalEdgeStyle;rounded=0;orthogonalLoop=1;jettySize=auto;html=1;exitX=0.5;exitY=0;exitDx=0;exitDy=0;entryX=0.25;entryY=1;entryDx=0;entryDy=0;" parent="1" source="gSzeJerURYjWZHmB3eWi-35" target="gSzeJerURYjWZHmB3eWi-42" edge="1">
          <mxGeometry relative="1" as="geometry" />
        </mxCell>
        <mxCell id="gSzeJerURYjWZHmB3eWi-35" value="&lt;font style=&quot;font-size: 18px;&quot;&gt;zoomInOnIntervalIter&lt;/font&gt;" style="html=1;overflow=block;blockSpacing=1;whiteSpace=wrap;fontSize=13;spacing=9;rounded=1;absoluteArcSize=1;arcSize=9;strokeWidth=NaN;lucidId=FFvGuSMelD0~;" parent="1" vertex="1">
          <mxGeometry x="914" y="-1203.5" width="200" height="48" as="geometry" />
        </mxCell>
        <mxCell id="TFieeq6qcoloKsAf0FWk-34" style="edgeStyle=orthogonalEdgeStyle;rounded=0;orthogonalLoop=1;jettySize=auto;html=1;exitX=0.5;exitY=0;exitDx=0;exitDy=0;entryX=0.5;entryY=1;entryDx=0;entryDy=0;noEdgeStyle=1;orthogonal=1;" parent="1" source="gSzeJerURYjWZHmB3eWi-36" target="gSzeJerURYjWZHmB3eWi-42" edge="1">
          <mxGeometry relative="1" as="geometry" />
        </mxCell>
        <mxCell id="gSzeJerURYjWZHmB3eWi-36" value="getSubdivisionIntervals" style="html=1;overflow=block;blockSpacing=1;whiteSpace=wrap;fontSize=16.7;spacing=9;rounded=1;absoluteArcSize=1;arcSize=9;strokeWidth=NaN;lucidId=HFvGc6xOQL68;" parent="1" vertex="1">
          <mxGeometry x="1207" y="-1233" width="207" height="46" as="geometry" />
        </mxCell>
        <mxCell id="TFieeq6qcoloKsAf0FWk-31" style="edgeStyle=orthogonalEdgeStyle;rounded=0;orthogonalLoop=1;jettySize=auto;html=1;exitX=0.25;exitY=0;exitDx=0;exitDy=0;entryX=1;entryY=1;entryDx=0;entryDy=0;noEdgeStyle=1;orthogonal=1;" parent="1" source="gSzeJerURYjWZHmB3eWi-38" target="gSzeJerURYjWZHmB3eWi-36" edge="1">
          <mxGeometry relative="1" as="geometry" />
        </mxCell>
        <mxCell id="gSzeJerURYjWZHmB3eWi-38" value="&lt;b&gt;getInverseOrder&lt;/b&gt;" style="html=1;overflow=block;blockSpacing=1;whiteSpace=wrap;fontSize=16.7;spacing=9;rounded=1;absoluteArcSize=1;arcSize=9;strokeWidth=NaN;lucidId=IFvGjFz1BOfG;" parent="1" vertex="1">
          <mxGeometry x="1404" y="-1141" width="163" height="46" as="geometry" />
        </mxCell>
        <mxCell id="gSzeJerURYjWZHmB3eWi-41" value="solveChebyshevSubdivision" style="html=1;overflow=block;blockSpacing=1;whiteSpace=wrap;fontSize=16.7;spacing=9;rounded=1;absoluteArcSize=1;arcSize=9;strokeWidth=NaN;lucidId=vGvGQogFolLe;" parent="1" vertex="1">
          <mxGeometry x="1179.25" y="-1512" width="244" height="46" as="geometry" />
        </mxCell>
        <mxCell id="TFieeq6qcoloKsAf0FWk-40" style="edgeStyle=orthogonalEdgeStyle;rounded=0;orthogonalLoop=1;jettySize=auto;html=1;exitX=0.5;exitY=0;exitDx=0;exitDy=0;entryX=0.5;entryY=1;entryDx=0;entryDy=0;noEdgeStyle=1;orthogonal=1;" parent="1" source="gSzeJerURYjWZHmB3eWi-42" target="gSzeJerURYjWZHmB3eWi-41" edge="1">
          <mxGeometry relative="1" as="geometry" />
        </mxCell>
        <mxCell id="gSzeJerURYjWZHmB3eWi-42" value="solvePolyRecursive" style="html=1;overflow=block;blockSpacing=1;whiteSpace=wrap;fontSize=16.7;spacing=9;rounded=1;absoluteArcSize=1;arcSize=9;strokeWidth=NaN;lucidId=yGvGxr4ZCtPq;" parent="1" vertex="1">
          <mxGeometry x="1218" y="-1362" width="180" height="46" as="geometry" />
        </mxCell>
        <mxCell id="TFieeq6qcoloKsAf0FWk-38" style="edgeStyle=orthogonalEdgeStyle;rounded=0;orthogonalLoop=1;jettySize=auto;html=1;exitX=1;exitY=0.5;exitDx=0;exitDy=0;entryX=0;entryY=1;entryDx=0;entryDy=0;noEdgeStyle=1;orthogonal=1;" parent="1" source="gSzeJerURYjWZHmB3eWi-43" target="gSzeJerURYjWZHmB3eWi-42" edge="1">
          <mxGeometry relative="1" as="geometry" />
        </mxCell>
        <mxCell id="gSzeJerURYjWZHmB3eWi-43" value="isExteriorInterval" style="html=1;overflow=block;blockSpacing=1;whiteSpace=wrap;fontSize=16.7;spacing=9;rounded=1;absoluteArcSize=1;arcSize=9;strokeWidth=NaN;lucidId=yGvGjepJpr3r;" parent="1" vertex="1">
          <mxGeometry x="775" y="-1300" width="159" height="46" as="geometry" />
        </mxCell>
        <mxCell id="TFieeq6qcoloKsAf0FWk-37" style="edgeStyle=orthogonalEdgeStyle;rounded=0;orthogonalLoop=1;jettySize=auto;html=1;exitX=1;exitY=0.5;exitDx=0;exitDy=0;entryX=0;entryY=0;entryDx=0;entryDy=0;noEdgeStyle=1;orthogonal=1;" parent="1" source="gSzeJerURYjWZHmB3eWi-44" target="gSzeJerURYjWZHmB3eWi-42" edge="1">
          <mxGeometry relative="1" as="geometry" />
        </mxCell>
        <mxCell id="gSzeJerURYjWZHmB3eWi-44" value="&lt;b&gt;trimMs&lt;/b&gt;" style="html=1;overflow=block;blockSpacing=1;whiteSpace=wrap;fontSize=16.7;spacing=9;rounded=1;absoluteArcSize=1;arcSize=9;strokeWidth=NaN;lucidId=AGvGpsZc1Ggb;" parent="1" vertex="1">
          <mxGeometry x="658" y="-1509" width="88" height="46" as="geometry" />
        </mxCell>
        <mxCell id="gSzeJerURYjWZHmB3eWi-45" value="__init__" style="html=1;overflow=block;blockSpacing=1;whiteSpace=wrap;fontSize=16.7;fontStyle=1;spacing=9;strokeColor=#unset;fillOpacity=100;rounded=1;absoluteArcSize=1;arcSize=9;fillColor=#fe7070;strokeWidth=NaN;lucidId=2HvGIrepVqW6;" parent="1" vertex="1">
          <mxGeometry x="1255.25" y="-1646" width="92" height="46" as="geometry" />
        </mxCell>
        <mxCell id="gSzeJerURYjWZHmB3eWi-47" value="copy" style="html=1;overflow=block;blockSpacing=1;whiteSpace=wrap;fontSize=16.7;fontStyle=1;spacing=9;strokeColor=#unset;fillOpacity=100;rounded=1;absoluteArcSize=1;arcSize=9;fillColor=#fe7070;strokeWidth=NaN;lucidId=qJvGjcbeHgxK;" parent="1" vertex="1">
          <mxGeometry x="781.75" y="-1648" width="68" height="46" as="geometry" />
        </mxCell>
        <mxCell id="gSzeJerURYjWZHmB3eWi-48" value="" style="html=1;jettySize=18;whiteSpace=wrap;fontSize=13;strokeOpacity=100;strokeWidth=0.8;rounded=1;arcSize=12;edgeStyle=orthogonalEdgeStyle;startArrow=none;endArrow=block;endFill=1;exitX=0.5;exitY=-0.013;exitPerimeter=0;entryX=0.503;entryY=1.014;entryPerimeter=0;lucidId=aLvGiIqN52hQ;noEdgeStyle=1;orthogonal=1;" parent="1" source="gSzeJerURYjWZHmB3eWi-3" target="gSzeJerURYjWZHmB3eWi-1" edge="1">
          <mxGeometry width="100" height="100" relative="1" as="geometry" />
        </mxCell>
        <mxCell id="gSzeJerURYjWZHmB3eWi-49" value="" style="html=1;jettySize=18;whiteSpace=wrap;fontSize=13;strokeOpacity=100;strokeWidth=0.8;rounded=1;arcSize=12;edgeStyle=orthogonalEdgeStyle;startArrow=none;endArrow=block;endFill=1;entryX=0.5;entryY=1;lucidId=JLvGypKGQDg3;noEdgeStyle=1;orthogonal=1;entryDx=0;entryDy=0;exitX=0;exitY=0.5;exitDx=0;exitDy=0;" parent="1" source="gSzeJerURYjWZHmB3eWi-25" target="gSzeJerURYjWZHmB3eWi-3" edge="1">
          <mxGeometry width="100" height="100" relative="1" as="geometry">
            <mxPoint x="1593" y="-664" as="sourcePoint" />
          </mxGeometry>
        </mxCell>
        <mxCell id="gSzeJerURYjWZHmB3eWi-51" value="" style="html=1;jettySize=18;whiteSpace=wrap;fontSize=13;strokeColor=#3a414a;strokeOpacity=100;strokeWidth=0.8;rounded=1;arcSize=12;edgeStyle=orthogonalEdgeStyle;startArrow=none;endArrow=block;endFill=1;exitX=0.5;exitY=1;entryX=0.5;entryY=0;lucidId=gNvGYQ8-unry;noEdgeStyle=1;orthogonal=1;entryDx=0;entryDy=0;exitDx=0;exitDy=0;" parent="1" source="gSzeJerURYjWZHmB3eWi-45" target="gSzeJerURYjWZHmB3eWi-41" edge="1">
          <mxGeometry width="100" height="100" relative="1" as="geometry" />
        </mxCell>
        <mxCell id="gSzeJerURYjWZHmB3eWi-52" value="" style="html=1;jettySize=18;whiteSpace=wrap;fontSize=13;strokeColor=#3a414a;strokeOpacity=100;strokeWidth=0.8;rounded=1;arcSize=12;edgeStyle=orthogonalEdgeStyle;startArrow=none;endArrow=block;endFill=1;exitX=0.5;exitY=1;lucidId=dOvG4CsjZo7m;noEdgeStyle=1;orthogonal=1;exitDx=0;exitDy=0;entryX=0;entryY=0;entryDx=0;entryDy=0;" parent="1" source="gSzeJerURYjWZHmB3eWi-47" target="gSzeJerURYjWZHmB3eWi-42" edge="1">
          <mxGeometry width="100" height="100" relative="1" as="geometry">
            <mxPoint x="1260" y="-1338" as="targetPoint" />
          </mxGeometry>
        </mxCell>
        <mxCell id="gSzeJerURYjWZHmB3eWi-53" value="" style="html=1;jettySize=18;whiteSpace=wrap;fontSize=13;strokeOpacity=100;strokeWidth=0.8;rounded=1;arcSize=12;edgeStyle=orthogonalEdgeStyle;startArrow=none;endArrow=block;endFill=1;exitX=0.5;exitY=-0.015;exitPerimeter=0;entryX=0.5;entryY=1;lucidId=VOvGhbf7ZBg6;noEdgeStyle=1;orthogonal=1;entryDx=0;entryDy=0;" parent="1" source="gSzeJerURYjWZHmB3eWi-2" target="gSzeJerURYjWZHmB3eWi-4" edge="1">
          <mxGeometry width="100" height="100" relative="1" as="geometry" />
        </mxCell>
        <mxCell id="gSzeJerURYjWZHmB3eWi-54" value="" style="html=1;jettySize=18;whiteSpace=wrap;fontSize=13;strokeOpacity=100;strokeWidth=0.8;rounded=1;arcSize=12;edgeStyle=orthogonalEdgeStyle;startArrow=none;endArrow=block;endFill=1;exitX=0;exitY=0.5;entryX=1;entryY=0.5;lucidId=SQvGfu-AFev~;noEdgeStyle=1;orthogonal=1;entryDx=0;entryDy=0;exitDx=0;exitDy=0;" parent="1" source="gSzeJerURYjWZHmB3eWi-1" target="gSzeJerURYjWZHmB3eWi-4" edge="1">
          <mxGeometry width="100" height="100" relative="1" as="geometry" />
        </mxCell>
        <mxCell id="gSzeJerURYjWZHmB3eWi-57" value="" style="html=1;jettySize=18;whiteSpace=wrap;fontSize=13;strokeColor=#3a414a;strokeOpacity=100;strokeWidth=0.8;rounded=1;arcSize=12;edgeStyle=orthogonalEdgeStyle;startArrow=none;endArrow=block;endFill=1;exitX=0.5;exitY=0;entryX=0.25;entryY=1;lucidId=iSvGZ8._N16R;noEdgeStyle=1;orthogonal=1;entryDx=0;entryDy=0;exitDx=0;exitDy=0;" parent="1" source="gSzeJerURYjWZHmB3eWi-13" target="gSzeJerURYjWZHmB3eWi-33" edge="1">
          <mxGeometry width="100" height="100" relative="1" as="geometry">
            <mxPoint x="245.74999999999955" y="-684.75" as="targetPoint" />
          </mxGeometry>
        </mxCell>
        <mxCell id="gSzeJerURYjWZHmB3eWi-95" style="edgeStyle=orthogonalEdgeStyle;rounded=0;orthogonalLoop=1;jettySize=auto;html=1;exitX=0.75;exitY=0;exitDx=0;exitDy=0;entryX=1;entryY=0.5;entryDx=0;entryDy=0;fillColor=#FF3705;" parent="1" source="gSzeJerURYjWZHmB3eWi-24" target="gSzeJerURYjWZHmB3eWi-24" edge="1">
          <mxGeometry relative="1" as="geometry" />
        </mxCell>
        <mxCell id="gSzeJerURYjWZHmB3eWi-4" value="TransformChebInPlaceND" style="html=1;overflow=block;blockSpacing=1;whiteSpace=wrap;fontSize=16.7;spacing=9;rounded=1;absoluteArcSize=1;arcSize=9;strokeWidth=NaN;lucidId=RnvGClwBoDEH;" parent="1" vertex="1">
          <mxGeometry x="1116.5" y="-875" width="231" height="46" as="geometry" />
        </mxCell>
        <mxCell id="gSzeJerURYjWZHmB3eWi-7" value="addTransform" style="html=1;overflow=block;blockSpacing=1;whiteSpace=wrap;fontSize=16.7;spacing=9;strokeColor=#unset;fillOpacity=100;rounded=1;absoluteArcSize=1;arcSize=9;fillColor=#c3f7c8;strokeWidth=NaN;lucidId=kuvG5MpnNNTo;" parent="1" vertex="1">
          <mxGeometry x="905" y="-807" width="137" height="46" as="geometry" />
        </mxCell>
        <mxCell id="TFieeq6qcoloKsAf0FWk-39" style="edgeStyle=orthogonalEdgeStyle;rounded=0;orthogonalLoop=1;jettySize=auto;html=1;exitX=0.75;exitY=0;exitDx=0;exitDy=0;entryX=1;entryY=0.5;entryDx=0;entryDy=0;" parent="1" source="gSzeJerURYjWZHmB3eWi-42" target="gSzeJerURYjWZHmB3eWi-42" edge="1">
          <mxGeometry relative="1" as="geometry" />
        </mxCell>
        <mxCell id="gSzeJerURYjWZHmB3eWi-32" value="transformChebToInterval" style="html=1;overflow=block;blockSpacing=1;whiteSpace=wrap;fontSize=16.7;spacing=9;rounded=1;absoluteArcSize=1;arcSize=9;strokeWidth=NaN;lucidId=IEvGRsLE.3P3;" parent="1" vertex="1">
          <mxGeometry x="888.5" y="-1069.5" width="218" height="46" as="geometry" />
        </mxCell>
        <mxCell id="gSzeJerURYjWZHmB3eWi-12" value="&lt;b&gt;copy&lt;/b&gt;" style="html=1;overflow=block;blockSpacing=1;whiteSpace=wrap;fontSize=16.7;spacing=9;strokeColor=#unset;fillOpacity=100;rounded=1;absoluteArcSize=1;arcSize=9;fillColor=#c3f7c8;strokeWidth=NaN;lucidId=ruvG1MH2ckTc;" parent="1" vertex="1">
          <mxGeometry x="826" y="-705" width="72" height="46" as="geometry" />
        </mxCell>
        <mxCell id="TFieeq6qcoloKsAf0FWk-67" value="" style="html=1;jettySize=18;whiteSpace=wrap;fontSize=13;strokeColor=#3a414a;strokeOpacity=100;strokeWidth=0.8;rounded=1;arcSize=12;edgeStyle=orthogonalEdgeStyle;startArrow=none;endArrow=block;endFill=1;exitX=0.75;exitY=0;entryX=0.75;entryY=1;lucidId=8TvGw6r7j~Gi;noEdgeStyle=1;orthogonal=1;entryDx=0;entryDy=0;exitDx=0;exitDy=0;" parent="1" source="gSzeJerURYjWZHmB3eWi-7" target="gSzeJerURYjWZHmB3eWi-31" edge="1">
          <mxGeometry width="100" height="100" relative="1" as="geometry">
            <mxPoint x="692" y="-565" as="sourcePoint" />
            <mxPoint x="1237" y="-1092" as="targetPoint" />
          </mxGeometry>
        </mxCell>
        <mxCell id="gSzeJerURYjWZHmB3eWi-31" value="transformCheb" style="html=1;overflow=block;blockSpacing=1;whiteSpace=wrap;fontSize=16.7;spacing=9;rounded=1;absoluteArcSize=1;arcSize=9;strokeWidth=NaN;lucidId=zEvG~qgvOHlg;" parent="1" vertex="1">
          <mxGeometry x="925" y="-970" width="144" height="46" as="geometry" />
        </mxCell>
        <mxCell id="TFieeq6qcoloKsAf0FWk-82" value="" style="edgeStyle=orthogonalEdgeStyle;rounded=0;orthogonalLoop=1;jettySize=auto;html=1;exitX=0.75;exitY=0;exitDx=0;exitDy=0;entryX=0.25;entryY=1;entryDx=0;entryDy=0;noEdgeStyle=1;orthogonal=1;" parent="1" source="gSzeJerURYjWZHmB3eWi-4" target="gSzeJerURYjWZHmB3eWi-39" edge="1">
          <mxGeometry relative="1" as="geometry">
            <mxPoint x="1392" y="-810" as="sourcePoint" />
            <mxPoint x="1392" y="-988" as="targetPoint" />
          </mxGeometry>
        </mxCell>
        <mxCell id="gSzeJerURYjWZHmB3eWi-39" value="getSubdivisionDims" style="html=1;overflow=block;blockSpacing=1;whiteSpace=wrap;fontSize=16.7;spacing=9;rounded=1;absoluteArcSize=1;arcSize=9;strokeWidth=NaN;lucidId=IFvGn9nHgf3C;" parent="1" vertex="1">
          <mxGeometry x="1360" y="-1068" width="181" height="46" as="geometry" />
        </mxCell>
        <mxCell id="TFieeq6qcoloKsAf0FWk-89" style="edgeStyle=orthogonalEdgeStyle;rounded=0;orthogonalLoop=1;jettySize=auto;html=1;exitX=0.5;exitY=0;exitDx=0;exitDy=0;entryX=0.5;entryY=1;entryDx=0;entryDy=0;noEdgeStyle=1;orthogonal=1;" parent="1" source="gSzeJerURYjWZHmB3eWi-4" target="gSzeJerURYjWZHmB3eWi-34" edge="1">
          <mxGeometry relative="1" as="geometry">
            <mxPoint x="1279" y="-1068" as="sourcePoint" />
            <mxPoint x="1318" y="-1138" as="targetPoint" />
          </mxGeometry>
        </mxCell>
      </root>
    </mxGraphModel>
  </diagram>
</mxfile>
